<svg width="40" height="33" viewBox="0 0 40 33" fill="none" xmlns="http://www.w3.org/2000/svg">
<g clip-path="url(#clip0_79_24)">
<path d="M24.9721 11.273C24.8167 11.0546 24.6109 10.8768 24.3723 10.7546C24.1337 10.6324 23.8692 10.5695 23.6011 10.571H6.95012C6.93812 10.571 6.92912 10.577 6.91712 10.578L6.32412 8.27C6.23085 7.90649 6.01924 7.58437 5.72266 7.35442C5.42608 7.12447 5.0614 6.99977 4.68612 7H1.44311C1.31051 7 1.18333 7.05268 1.08956 7.14645C0.995794 7.24022 0.943115 7.36739 0.943115 7.5C0.943115 7.63261 0.995794 7.75979 1.08956 7.85355C1.18333 7.94732 1.31051 8 1.44311 8H4.68612C4.83944 7.99988 4.98844 8.05084 5.10958 8.14482C5.23073 8.2388 5.31712 8.37046 5.35512 8.519L9.77312 25.727C9.86615 26.0905 10.0775 26.4128 10.3739 26.6429C10.6703 26.873 11.0349 26.9979 11.4101 26.998H22.1741C22.3067 26.998 22.4339 26.9453 22.5277 26.8516C22.6214 26.7578 22.6741 26.6306 22.6741 26.498C22.6741 26.3654 22.6214 26.2382 22.5277 26.1444C22.4339 26.0507 22.3067 25.998 22.1741 25.998H11.4101C11.257 25.9979 11.1082 25.9468 10.9873 25.8529C10.8663 25.7589 10.7801 25.6274 10.7421 25.479L9.92212 22.286H20.8231C21.178 22.2861 21.5239 22.1745 21.8118 21.967C22.0997 21.7596 22.315 21.4667 22.4271 21.13L25.2051 12.797C25.2913 12.5429 25.3152 12.2718 25.2746 12.0066C25.2341 11.7413 25.1303 11.4897 24.9721 11.273ZM20.8241 21.286H9.66512L7.17112 11.571H23.6011C23.7107 11.5702 23.8188 11.5959 23.9163 11.6458C24.0138 11.6958 24.0978 11.7686 24.1611 11.858C24.2255 11.9465 24.2677 12.0492 24.2843 12.1574C24.3008 12.2657 24.2911 12.3763 24.2561 12.48L23.7021 14.143H14.5381C14.4055 14.143 14.2783 14.1957 14.1846 14.2894C14.0908 14.3832 14.0381 14.5104 14.0381 14.643C14.0381 14.7756 14.0908 14.9028 14.1846 14.9966C14.2783 15.0903 14.4055 15.143 14.5381 15.143H23.3691L22.5121 17.714H15.7291C15.5965 17.714 15.4693 17.7667 15.3756 17.8604C15.2818 17.9542 15.2291 18.0814 15.2291 18.214C15.2291 18.3466 15.2818 18.4738 15.3756 18.5676C15.4693 18.6613 15.5965 18.714 15.7291 18.714H22.1781L21.4781 20.813C21.433 20.9508 21.3454 21.0707 21.2279 21.1557C21.1104 21.2406 20.9691 21.2862 20.8241 21.286ZM11.5621 28.429C10.9562 28.4295 10.3752 28.6704 9.94661 29.0988C9.51804 29.5272 9.27691 30.1081 9.27612 30.714C9.27612 31.975 10.3011 33 11.5621 33C12.8231 33 13.8481 31.975 13.8481 30.714C13.8473 30.1081 13.6062 29.5272 13.1776 29.0988C12.7491 28.6704 12.1681 28.4295 11.5621 28.429ZM11.5621 32C11.3075 32.0002 11.0585 31.9249 10.8467 31.7835C10.6349 31.6422 10.4698 31.4412 10.3723 31.206C10.2747 30.9708 10.2492 30.7119 10.2988 30.4622C10.3484 30.2124 10.471 29.983 10.6511 29.803C10.8311 29.6229 11.0605 29.5003 11.3103 29.4507C11.56 29.4011 11.8189 29.4266 12.0541 29.5242C12.2893 29.6217 12.4903 29.7868 12.6316 29.9986C12.773 30.2104 12.8483 30.4594 12.8481 30.714C12.8481 31.423 12.2711 32 11.5621 32ZM21.0861 28.429C20.4802 28.4295 19.8992 28.6704 19.4706 29.0988C19.042 29.5272 18.8009 30.1081 18.8001 30.714C18.8001 31.975 19.8251 33 21.0861 33C22.3471 33 23.3721 31.975 23.3721 30.714C23.3713 30.1081 23.1302 29.5272 22.7016 29.0988C22.2731 28.6704 21.6921 28.4295 21.0861 28.429ZM21.0861 32C20.8315 32.0002 20.5825 31.9249 20.3707 31.7835C20.1589 31.6422 19.9938 31.4412 19.8963 31.206C19.7987 30.9708 19.7732 30.7119 19.8228 30.4622C19.8724 30.2124 19.995 29.983 20.1751 29.803C20.3551 29.6229 20.5845 29.5003 20.8343 29.4507C21.084 29.4011 21.3429 29.4266 21.5781 29.5242C21.8133 29.6217 22.0143 29.7868 22.1556 29.9986C22.297 30.2104 22.3723 30.4594 22.3721 30.714C22.3721 31.423 21.7951 32 21.0861 32Z" fill="#010101" style="fill:#010101;fill:color(display-p3 0.0039 0.0039 0.0039);fill-opacity:1;"/>
</g>
<defs>
<clipPath id="clip0_79_24">
<rect width="39" height="33" fill="white" style="fill:white;fill-opacity:1;" transform="translate(0.943115)"/>
</clipPath>
</defs>
</svg>
