<svg width="237" height="115" viewBox="0 0 237 115" fill="none" xmlns="http://www.w3.org/2000/svg">
<ellipse cx="57" cy="57.5" rx="57" ry="57.5" fill="#7DB68E" style="fill:#7DB68E;fill:color(display-p3 0.4902 0.7137 0.5569);fill-opacity:1;"/>
<path d="M89.9915 32.992C85.3808 31.2187 81.0235 30.332 76.9195 30.332C72.8662 30.332 69.6995 31.1933 67.4195 32.916C65.1395 34.6387 63.9995 37.02 63.9995 40.06C63.9995 43.7587 65.9248 46.6213 69.7755 48.648C71.4982 49.5093 73.3728 50.32 75.3995 51.08C77.4768 51.7893 79.5542 52.6 81.6315 53.512C83.7088 54.424 85.6088 55.4627 87.3315 56.628C89.0542 57.7933 90.4475 59.4147 91.5115 61.492C92.5755 63.5187 93.1075 66.128 93.1075 69.32C93.1075 72.4613 92.2208 75.1467 90.4475 77.376C88.6742 79.6053 86.5208 81.1253 83.9875 81.936C81.5048 82.696 78.5915 83.076 75.2475 83.076C69.0155 83.076 63.6955 81.5307 59.2875 78.44L59.6675 77.832C61.3395 79.1493 63.4928 80.2387 66.1275 81.1C68.8128 81.9107 71.5488 82.316 74.3355 82.316C78.4395 82.316 81.9355 81.3787 84.8235 79.504C87.7622 77.5787 89.2315 74.7667 89.2315 71.068C89.2315 67.0147 87.3062 63.848 83.4555 61.568C81.7328 60.5547 79.8328 59.6173 77.7555 58.756C75.7288 57.8947 73.6768 57.008 71.5995 56.096C69.5222 55.1333 67.6222 54.0693 65.8995 52.904C62.0488 50.3707 60.1235 46.7733 60.1235 42.112C60.1235 38.4133 61.3648 35.424 63.8475 33.144C66.3302 30.8133 70.0542 29.648 75.0195 29.648C80.0355 29.648 85.1275 30.5093 90.2955 32.232L89.9915 32.992ZM130.701 83C128.623 83 127.027 82.544 125.913 81.632C124.849 80.72 124.291 79.808 124.241 78.896L124.165 77.604V53.74C124.165 49.7373 123.101 47.1787 120.973 46.064C119.959 45.5573 118.667 45.304 117.097 45.304C113.955 45.304 111.118 46.596 108.585 49.18C106.102 51.7133 104.861 53.9933 104.861 56.02V83H99.5408V26.076H104.861V53.664C105.671 51.4853 107.217 49.4587 109.497 47.584C111.777 45.6587 114.335 44.696 117.173 44.696C122.087 44.696 125.355 45.5573 126.977 47.28C128.649 48.952 129.485 51.1307 129.485 53.816V77.604C129.485 79.0733 129.763 80.2133 130.321 81.024C130.929 81.784 131.511 82.1893 132.069 82.24L132.981 82.392H135.337V83H130.701ZM156.722 83.304C151.402 83.304 147.07 81.784 143.726 78.744C140.382 75.704 138.71 71.0173 138.71 64.684C138.71 58.3507 140.433 53.436 143.878 49.94C147.374 46.444 151.782 44.696 157.102 44.696C162.473 44.696 166.83 46.216 170.174 49.256C173.518 52.296 175.19 56.9827 175.19 63.316C175.19 69.6493 173.442 74.564 169.946 78.06C166.501 81.556 162.093 83.304 156.722 83.304ZM157.254 45.304C153.404 45.304 150.212 47.0267 147.678 50.472C145.145 53.8667 143.878 58.6293 143.878 64.76C143.878 70.84 145.044 75.3493 147.374 78.288C149.705 81.2267 152.796 82.696 156.646 82.696C160.497 82.696 163.689 80.9987 166.222 77.604C168.756 74.1587 170.022 69.396 170.022 63.316C170.022 57.1853 168.857 52.6507 166.526 49.712C164.196 46.7733 161.105 45.304 157.254 45.304ZM180.513 45H185.833V54.424C186.695 52.0933 188.291 49.8893 190.621 47.812C192.952 45.7347 195.587 44.696 198.525 44.696C208.811 44.696 213.953 50.7253 213.953 62.784C213.953 76.464 207.316 83.304 194.041 83.304C191.66 83.304 188.924 82.7467 185.833 81.632V102H180.513V45ZM198.449 45.304C195.308 45.304 192.471 46.672 189.937 49.408C187.404 52.0933 186.036 54.5253 185.833 56.704V80.948C188.924 82.1133 191.635 82.696 193.965 82.696C203.744 82.696 208.633 76.0333 208.633 62.708C208.633 51.1053 205.239 45.304 198.449 45.304Z" fill="black" style="fill:black;fill-opacity:1;"/>
</svg>
