<svg width="25" height="25" viewBox="0 0 25 25" fill="none" xmlns="http://www.w3.org/2000/svg">
<path d="M24.1044 22.9829L19.9869 18.922L19.8904 18.774C19.711 18.5938 19.4656 18.4923 19.2095 18.4923C18.9534 18.4923 18.7081 18.5938 18.5286 18.774C15.0293 22.0124 9.63734 22.1884 5.92857 19.1853C2.21981 16.1823 1.34513 10.932 3.88463 6.91646C6.42412 2.90092 11.5898 1.36619 15.9557 3.33008C20.3217 5.29397 22.5332 10.1471 21.1235 14.6708C21.022 14.9977 21.105 15.3531 21.3412 15.6032C21.5774 15.8533 21.931 15.9601 22.2687 15.8834C22.6064 15.8067 22.877 15.5581 22.9786 15.2313C24.6637 9.86295 22.1186 4.0858 16.9898 1.63711C11.861 -0.811572 5.6876 0.803079 2.4632 5.43655C-0.761195 10.07 -0.0689372 16.3318 4.09215 20.1711C8.25324 24.0104 14.6344 24.275 19.1076 20.7938L22.7534 24.3894C23.1299 24.7591 23.7386 24.7591 24.1152 24.3894C24.4913 24.0144 24.4913 23.4107 24.1152 23.0358L24.1044 22.9829Z" fill="black" style="fill:black;fill-opacity:1;"/>
</svg>
